<svg width="320" height="84" viewBox="0 0 320 84" fill="none" xmlns="http://www.w3.org/2000/svg">
  <rect width="320" height="84" fill="#032b45" rx="12"/>
  <g transform="translate(24,18)">
    <path d="M20 0c-5.5 0-10.5 2.7-13.7 7.2L0 22h9.6l4.4-7c1.6-2.6 4.4-4.2 7.4-4.2H36l2.6-8.8C37.3 0 20 0 20 0z" fill="#21d4b3"/>
    <path d="M42 14c5.5 0 10.5-2.7 13.7-7.2L62 0h-9.6l-4.4 7c-1.6 2.6-4.4 4.2-7.4 4.2H26l-2.6 8.8C24.7 14 42 14 42 14z" fill="#ffffff" fill-opacity="0.9"/>
  </g>
  <text x="120" y="42" font-family="Inter, 'Segoe UI', sans-serif" font-size="32" font-weight="600" fill="#ffffff">Fluxo</text>
  <text x="120" y="66" font-family="Inter, 'Segoe UI', sans-serif" font-size="28" font-weight="500" fill="#ffffff">Softwares</text>
  <text x="120" y="82" font-family="Inter, 'Segoe UI', sans-serif" font-size="16" fill="#21d4b3">Transformamos ideias em tecnologia</text>
</svg>
